<?xml version="1.0" encoding="UTF-8"?>
<svg id="Calque_2" data-name="Calque 2" xmlns="http://www.w3.org/2000/svg" viewBox="0 0 1042.77 308">
  <defs>
    <style>
      .cls-1 {
        fill: #ffe3b6;
        stroke-width: 0px;
      }
    </style>
  </defs>
  <g id="Calque_1-2" data-name="Calque 1">
    <g>
      <path class="cls-1" d="m130.61,154.39c25.81,23.15,29.49,37.08,26.87,63.98-.24,2.41-.47,4.84-.69,7.26-4.83,51.09-21.16,82.73-79.59,82.36C19.12,307.65.19,284.16,0,220v-8c-.02-11.6,3.45-14.93,15.84-15.36,9.67-.33,19.28-.64,28.82-.92,12.21-.36,15.37,2.74,14.8,14.34-.29,5.87-.57,11.76-.83,17.67-.7,16.12,5.57,22.48,19.6,22.17,14.04-.29,20.67-6.61,21.66-21.18.17-2.56.35-5.12.54-7.67.78-11.26-1.06-16.81-15.47-29.59-15.63-13.79-31.99-27.48-49.19-41.22C6.76,127.52-.15,114,0,87.2v-8.8C.71,27.95,20.51.02,77.2,0c56.11-.22,88.76,24.52,90.88,87.02.04,2.59.05,5.17.04,7.75-.11,11.23-3.66,14.32-15.83,14.36-9.55.03-19.15.07-28.82.13-12.4.08-15.72-3.01-15.71-14.35-.01-5.73-.11-11.47-.31-17.22-.61-15.67-8.14-22-23.13-21.99-15.07,0-21.62,5.97-21.23,20.19.06,2.24.11,4.47.15,6.71.17,11.44,2.85,16.94,14.96,27.03,18.41,15,35.91,29.87,52.42,44.76Z"/>
      <path class="cls-1" d="m289.11,176.99c.9-5.41-.39-6.95-5.85-6.97-10.66-.04-21.36-.06-32.13-.06-5.51,0-7.33,1.55-8.15,6.99-5.28,34.99-10.61,71.05-8.94,110.27.62,12.67-2.02,16.34-13.65,16.32-8.51,0-17.01.02-25.52.03-11.53.03-15.09-3.57-15.34-16.11-1.61-97.27,30.93-177.79,6.76-268.4-3.19-11.68-1.34-14.98,10.37-14.96,8.57,0,17.13.02,25.69.02,11.55,0,16.32,3.36,19.95,15.14,9.29,31.09,10.82,60.67,8.96,90.05-.32,4.98,1.11,6.9,6.75,6.94,11,.07,21.92.15,32.79.24,5.56.05,7.35-1.84,7.76-6.8,2.34-29.27,1.1-58.86-8.67-90.22-3.81-11.88-2.28-15.29,9.42-15.26,8.54,0,17.08.02,25.62.03,11.51-.01,16.44,3.46,20.3,15.49,29.03,93.22-20.79,168.63-10.34,267.34,1.45,12.74-.82,16.45-12.46,16.43-8.5,0-17,0-25.5,0-11.5.03-15.4-3.66-16.37-16.39-2.76-39.39,2.76-75.3,8.55-110.11Z"/>
      <path class="cls-1" d="m469.6,4.38c17.84-.03,26.24,6.72,31.73,22.43,31.71,93.26-12.54,166.11,21.47,260.67,4.67,12.48,3.02,16.11-8.65,16.08-9.17,0-18.34-.01-27.51-.02-11.86.02-15.94-3.22-20.25-16.26-4.85-15.74-7.67-30.86-9.16-45.56-.33-4.04-1.41-5.25-6.01-5.3-10.98-.11-21.96-.21-32.94-.3-4.59-.04-5.82,1.16-6.34,5.21-2.12,14.75-3.07,29.95-2.26,45.8.64,13.12-1.06,16.39-13.12,16.35-9.17,0-18.33,0-27.5,0-11.49.03-15.64-3.69-15.66-16.42-.33-96.6,59.49-169.67,47.46-260.84-2.21-15.36.31-21.94,18.43-21.89,16.78.02,33.54.04,50.31.05Zm-12.89,77.76c-4.26-.06-6.57.69-7.17,5.34-4.47,30.08-14.04,58.94-22.56,88.51-1.24,4.57-.31,5.74,4.61,5.81,6.57.09,13.13.19,19.69.29,4.92.08,6.26-1.06,6.74-5.63,2.71-29.59,6.69-58.57,5.4-88.77-.14-4.67-2.47-5.49-6.71-5.55Z"/>
      <path class="cls-1" d="m597.71,200.16c-5.36-.08-7.11,1.41-7.66,6.78-2.58,25.85-1.97,52.39,5.97,80.86,3.56,12.29,2.04,15.86-9.65,15.83-8.52,0-17.03-.02-25.54-.03-11.48.02-16.24-3.61-19.45-16.04-23.98-96.32,32.73-169.7,11.78-266.92-2.83-12.55-1.08-16.21,10.59-16.17,17.54.01,35.08.02,52.62.03,60.24-.34,95.67,26.04,89.84,80.36-1.62,15.09-4.05,29.78-6.63,44.28-9.71,51.64-38.36,71.89-96.87,71.1-1.66-.03-3.33-.05-4.99-.08Zm3.62-59.98c-1.04,5.31.17,6.85,5.48,6.93,2.65.04,5.31.08,7.96.12,18.56.26,28.55-7.13,32.06-26.72,1.6-9.11,3.05-18.31,4.17-27.65,2.34-20.18-6.32-28.59-25.06-28.67-2.69-.02-5.38-.04-8.07-.06-5.39-.05-6.9,1.59-7.12,7.23-.98,23.77-5.05,46.43-9.43,68.82Z"/>
      <path class="cls-1" d="m768.74,202.36c-5.61-.05-7.34,1.47-7.58,6.83-1.08,25.81,1,51.97,9.46,79.42,3.75,11.84,2.19,15.23-9.51,15.2-8.55,0-17.09-.02-25.63-.03-11.51.01-16.44-3.44-20.3-15.43-29.07-92.87,19.33-168.71,10.05-267.43-1.3-12.74,1.04-16.45,12.68-16.43,17.53,0,35.07-.01,52.61-.02,60.59-.15,90.81,25,85.44,79.64-1.47,15.22-3.28,30.17-5.04,44.95-6.22,52.77-35.47,73.72-96.96,73.33-1.74-.01-3.49-.03-5.22-.04Zm.34-60.49c-.86,5.39.47,6.93,5.97,6.95,2.75,0,5.51.02,8.27.02,19.36.02,29.25-7.63,32.11-27.58,1.33-9.27,2.63-18.63,3.77-28.11,2.42-20.47-5.81-28.8-24.8-28.67-2.72.01-5.44.03-8.15.04-5.44.02-7.07,1.69-7.55,7.41-2.05,24.11-5.98,47.21-9.62,69.94Z"/>
      <path class="cls-1" d="m960.23,111.71c8.07-30.15,15.64-60.87,21.76-92.15,2.49-12.05,6.41-15.42,17.22-15.43,10.26-.03,20.52-.06,30.79-.09,11.6-.02,14.8,4.74,11.6,14.77-16.74,57.69-37.38,116.13-57.64,172.62-2.29,7.13-2.78,9.5-2.77,20.94.09,25.5,1.18,51.04,4.02,76.83,1.29,11.57-1.4,14.79-13.1,14.78-8.34,0-16.67,0-25-.01-11.62,0-15.8-3.25-18.13-14.84-5-25.83-6.81-51.14-6.83-76.37.04-11.31-.28-13.64-2.2-20.64-16.88-55.7-22.9-110.4-40.07-171.67-3.31-10.75-.49-16.07,11.12-16.07,10.24-.02,20.48-.03,30.73-.05,10.76-.03,14.92,3.45,17.26,15.68,5.61,31.73,9.05,62.05,12.98,91.91.54,3.96,1.31,4.74,3.8,4.68,2.49-.06,3.37-.87,4.46-4.88Z"/>
    </g>
  </g>
</svg>